<svg width="64" height="64" viewBox="0 0 64 64" xmlns="http://www.w3.org/2000/svg">
  <defs>
    <linearGradient id="iconGradient" x1="0%" y1="0%" x2="100%" y2="100%">
      <stop offset="0%" style="stop-color:#667eea;stop-opacity:1" />
      <stop offset="100%" style="stop-color:#764ba2;stop-opacity:1" />
    </linearGradient>
    <linearGradient id="toolIconGradient" x1="0%" y1="0%" x2="100%" y2="100%">
      <stop offset="0%" style="stop-color:#f093fb;stop-opacity:1" />
      <stop offset="100%" style="stop-color:#f5576c;stop-opacity:1" />
    </linearGradient>
  </defs>
  
  <!-- Background Circle -->
  <circle cx="32" cy="32" r="30" fill="url(#iconGradient)" opacity="0.1"/>
  
  <!-- Workshop Building -->
  <rect x="8" y="35" width="20" height="15" fill="url(#iconGradient)" rx="1"/>
  <polygon points="6,35 18,22 30,35" fill="url(#iconGradient)"/>
  <rect x="12" y="40" width="3" height="8" fill="#fff" opacity="0.3"/>
  <rect x="18" y="40" width="3" height="8" fill="#fff" opacity="0.3"/>
  <rect x="23" y="37" width="4" height="11" fill="#fff" opacity="0.2"/>
  
  <!-- Car Silhouette -->
  <ellipse cx="32" cy="45" rx="12" ry="4" fill="url(#iconGradient)"/>
  <path d="M22,45 Q22,38 26,38 L38,38 Q42,38 42,45 Q42,48 38,48 L26,48 Q22,48 22,45" fill="url(#iconGradient)"/>
  <circle cx="27" cy="47" r="2" fill="#fff" opacity="0.4"/>
  <circle cx="37" cy="47" r="2" fill="#fff" opacity="0.4"/>
  <rect x="25" y="40" width="2" height="2" fill="#fff" opacity="0.3"/>
  <rect x="30" y="40" width="4" height="2" fill="#fff" opacity="0.3"/>
  <rect x="37" y="40" width="2" height="2" fill="#fff" opacity="0.3"/>
  
  <!-- Wrench/Tools -->
  <path d="M45,20 L52,13 L53,14 L48,19 L51,22 L52,21 L57,26 L56,27 L51,22 L48,25 L45,22 Z" fill="url(#toolIconGradient)"/>
  <circle cx="54" cy="16" r="2" fill="url(#toolIconGradient)" opacity="0.7"/>
  <path d="M50,30 L53,27 L54,28 L52,30 L55,33 L54,34 L51,31 L50,32 L50,30 Z" fill="url(#toolIconGradient)"/>
  
  <!-- Decorative Elements -->
  <circle cx="12" cy="15" r="1" fill="url(#iconGradient)" opacity="0.3"/>
  <circle cx="52" cy="50" r="1" fill="url(#toolIconGradient)" opacity="0.4"/>
  <circle cx="10" cy="50" r="0.5" fill="url(#iconGradient)" opacity="0.5"/>
</svg>