<svg width="512" height="512" viewBox="0 0 512 512" xmlns="http://www.w3.org/2000/svg">
  <defs>
    <linearGradient id="iconGradient512" x1="0%" y1="0%" x2="100%" y2="100%">
      <stop offset="0%" style="stop-color:#667eea;stop-opacity:1" />
      <stop offset="100%" style="stop-color:#764ba2;stop-opacity:1" />
    </linearGradient>
    <linearGradient id="toolIconGradient512" x1="0%" y1="0%" x2="100%" y2="100%">
      <stop offset="0%" style="stop-color:#f093fb;stop-opacity:1" />
      <stop offset="100%" style="stop-color:#f5576c;stop-opacity:1" />
    </linearGradient>
  </defs>
  
  <!-- Background Circle -->
  <circle cx="256" cy="256" r="240" fill="url(#iconGradient512)" opacity="0.1"/>
  
  <!-- Workshop Building -->
  <rect x="75" y="270" width="160" height="112" fill="url(#iconGradient512)" rx="8"/>
  <polygon points="58,270 155,165 252,270" fill="url(#iconGradient512)"/>
  <rect x="105" y="310" width="20" height="54" fill="#fff" opacity="0.3"/>
  <rect x="145" y="310" width="20" height="54" fill="#fff" opacity="0.3"/>
  <rect x="185" y="288" width="32" height="76" fill="#fff" opacity="0.2"/>
  
  <!-- Car Silhouette -->
  <ellipse cx="256" cy="342" rx="96" ry="26" fill="url(#iconGradient512)"/>
  <path d="M166,342 Q166,290 186,290 L326,290 Q346,290 346,342 Q346,368 326,368 L186,368 Q166,368 166,342" fill="url(#iconGradient512)"/>
  <circle cx="208" cy="355" r="16" fill="#fff" opacity="0.4"/>
  <circle cx="304" cy="355" r="16" fill="#fff" opacity="0.4"/>
  <rect x="192" y="306" width="16" height="16" fill="#fff" opacity="0.3"/>
  <rect x="230" y="306" width="32" height="16" fill="#fff" opacity="0.3"/>
  <rect x="290" y="306" width="16" height="16" fill="#fff" opacity="0.3"/>
  
  <!-- Wrench/Tools -->
  <path d="M360,160 L416,104 L424,112 L384,152 L408,176 L416,168 L456,208 L448,216 L408,176 L384,200 L360,176 Z" fill="url(#toolIconGradient512)"/>
  <circle cx="432" cy="120" r="16" fill="url(#toolIconGradient512)" opacity="0.7"/>
  <path d="M400,240 L424,216 L432,224 L416,240 L440,264 L432,272 L408,248 L400,256 L400,240 Z" fill="url(#toolIconGradient512)"/>
  
  <!-- Additional Tools -->
  <rect x="320" y="120" width="8" height="48" fill="url(#toolIconGradient512)" rx="4"/>
  <circle cx="324" cy="108" r="8" fill="url(#toolIconGradient512)"/>
  <rect x="340" y="140" width="32" height="8" fill="url(#toolIconGradient512)" rx="4"/>
  
  <!-- Decorative Elements -->
  <circle cx="96" cy="112" r="8" fill="url(#iconGradient512)" opacity="0.3"/>
  <circle cx="416" cy="400" r="8" fill="url(#toolIconGradient512)" opacity="0.4"/>
  <circle cx="80" cy="400" r="4" fill="url(#iconGradient512)" opacity="0.5"/>
  <circle cx="428" cy="80" r="4" fill="url(#toolIconGradient512)" opacity="0.3"/>
  <circle cx="80" cy="80" r="3" fill="url(#iconGradient512)" opacity="0.4"/>
  <circle cx="432" cy="432" r="3" fill="url(#toolIconGradient512)" opacity="0.5"/>
  
  <!-- Gear Elements -->
  <g transform="translate(400,350)">
    <circle cx="0" cy="0" r="20" fill="url(#toolIconGradient512)" opacity="0.6"/>
    <circle cx="0" cy="0" r="12" fill="#fff" opacity="0.3"/>
    <circle cx="0" cy="0" r="6" fill="url(#toolIconGradient512)"/>
  </g>
</svg>