<svg width="192" height="192" viewBox="0 0 192 192" xmlns="http://www.w3.org/2000/svg">
  <defs>
    <linearGradient id="iconGradient192" x1="0%" y1="0%" x2="100%" y2="100%">
      <stop offset="0%" style="stop-color:#667eea;stop-opacity:1" />
      <stop offset="100%" style="stop-color:#764ba2;stop-opacity:1" />
    </linearGradient>
    <linearGradient id="toolIconGradient192" x1="0%" y1="0%" x2="100%" y2="100%">
      <stop offset="0%" style="stop-color:#f093fb;stop-opacity:1" />
      <stop offset="100%" style="stop-color:#f5576c;stop-opacity:1" />
    </linearGradient>
  </defs>
  
  <!-- Background Circle -->
  <circle cx="96" cy="96" r="88" fill="url(#iconGradient192)" opacity="0.1"/>
  
  <!-- Workshop Building -->
  <rect x="28" y="100" width="60" height="42" fill="url(#iconGradient192)" rx="3"/>
  <polygon points="22,100 58,62 94,100" fill="url(#iconGradient192)"/>
  <rect x="40" y="116" width="8" height="20" fill="#fff" opacity="0.3"/>
  <rect x="54" y="116" width="8" height="20" fill="#fff" opacity="0.3"/>
  <rect x="68" y="108" width="12" height="28" fill="#fff" opacity="0.2"/>
  
  <!-- Car Silhouette -->
  <ellipse cx="96" cy="128" rx="36" ry="10" fill="url(#iconGradient192)"/>
  <path d="M62,128 Q62,108 70,108 L122,108 Q130,108 130,128 Q130,138 122,138 L70,138 Q62,138 62,128" fill="url(#iconGradient192)"/>
  <circle cx="78" cy="133" r="6" fill="#fff" opacity="0.4"/>
  <circle cx="114" cy="133" r="6" fill="#fff" opacity="0.4"/>
  <rect x="72" y="114" width="6" height="6" fill="#fff" opacity="0.3"/>
  <rect x="86" y="114" width="12" height="6" fill="#fff" opacity="0.3"/>
  <rect x="108" y="114" width="6" height="6" fill="#fff" opacity="0.3"/>
  
  <!-- Wrench/Tools -->
  <path d="M135,60 L156,39 L159,42 L144,57 L153,66 L156,63 L171,78 L168,81 L153,66 L144,75 L135,66 Z" fill="url(#toolIconGradient192)"/>
  <circle cx="162" cy="45" r="6" fill="url(#toolIconGradient192)" opacity="0.7"/>
  <path d="M150,90 L159,81 L162,84 L156,90 L165,99 L162,102 L153,93 L150,96 L150,90 Z" fill="url(#toolIconGradient192)"/>
  
  <!-- Decorative Elements -->
  <circle cx="36" cy="42" r="3" fill="url(#iconGradient192)" opacity="0.3"/>
  <circle cx="156" cy="150" r="3" fill="url(#toolIconGradient192)" opacity="0.4"/>
  <circle cx="30" cy="150" r="2" fill="url(#iconGradient192)" opacity="0.5"/>
  <circle cx="160" cy="30" r="2" fill="url(#toolIconGradient192)" opacity="0.3"/>
  <circle cx="30" cy="30" r="1.5" fill="url(#iconGradient192)" opacity="0.4"/>
</svg>