<svg width="72" height="72" viewBox="0 0 72 72" xmlns="http://www.w3.org/2000/svg">
  <defs>
    <linearGradient id="iconGradient72" x1="0%" y1="0%" x2="100%" y2="100%">
      <stop offset="0%" style="stop-color:#667eea;stop-opacity:1" />
      <stop offset="100%" style="stop-color:#764ba2;stop-opacity:1" />
    </linearGradient>
    <linearGradient id="toolIconGradient72" x1="0%" y1="0%" x2="100%" y2="100%">
      <stop offset="0%" style="stop-color:#f093fb;stop-opacity:1" />
      <stop offset="100%" style="stop-color:#f5576c;stop-opacity:1" />
    </linearGradient>
  </defs>
  
  <!-- Background Circle -->
  <circle cx="36" cy="36" r="34" fill="url(#iconGradient72)" opacity="0.1"/>
  
  <!-- Workshop Building -->
  <rect x="10" y="38" width="22" height="16" fill="url(#iconGradient72)" rx="1"/>
  <polygon points="8,38 21,24 34,38" fill="url(#iconGradient72)"/>
  <rect x="14" y="44" width="3" height="8" fill="#fff" opacity="0.3"/>
  <rect x="20" y="44" width="3" height="8" fill="#fff" opacity="0.3"/>
  <rect x="26" y="40" width="4" height="12" fill="#fff" opacity="0.2"/>
  
  <!-- Car Silhouette -->
  <ellipse cx="36" cy="48" rx="14" ry="4" fill="url(#iconGradient72)"/>
  <path d="M24,48 Q24,40 28,40 L44,40 Q48,40 48,48 Q48,52 44,52 L28,52 Q24,52 24,48" fill="url(#iconGradient72)"/>
  <circle cx="30" cy="50" r="2" fill="#fff" opacity="0.4"/>
  <circle cx="42" cy="50" r="2" fill="#fff" opacity="0.4"/>
  <rect x="28" y="42" width="2" height="2" fill="#fff" opacity="0.3"/>
  <rect x="34" y="42" width="4" height="2" fill="#fff" opacity="0.3"/>
  <rect x="42" y="42" width="2" height="2" fill="#fff" opacity="0.3"/>
  
  <!-- Wrench/Tools -->
  <path d="M50,22 L58,14 L59,15 L53,21 L57,25 L58,24 L64,30 L63,31 L57,25 L53,28 L50,25 Z" fill="url(#toolIconGradient72)"/>
  <circle cx="60" cy="17" r="2" fill="url(#toolIconGradient72)" opacity="0.7"/>
  <path d="M56,34 L60,30 L61,31 L58,34 L62,38 L61,39 L57,35 L56,36 L56,34 Z" fill="url(#toolIconGradient72)"/>
  
  <!-- Decorative Elements -->
  <circle cx="14" cy="16" r="1" fill="url(#iconGradient72)" opacity="0.3"/>
  <circle cx="58" cy="56" r="1" fill="url(#toolIconGradient72)" opacity="0.4"/>
  <circle cx="12" cy="56" r="0.5" fill="url(#iconGradient72)" opacity="0.5"/>
</svg>